<svg width="94" height="16" viewBox="0 0 94 16" fill="none" xmlns="http://www.w3.org/2000/svg">
<path d="M6.85624 0.202545H12.0233V10.0253C12.0233 14.1772 9.14165 16 5.26638 16C2.18605 16 0 14.3797 0 11.5443C0 10.1266 0.894292 8.9114 1.88795 8.6076L1.98731 8.70887C0.993657 9.2152 0.198731 10.2279 0.198731 11.5443C0.198731 14.2785 2.38478 15.4937 3.87526 15.4937C6.06131 15.4937 6.75687 13.7722 6.75687 11.6456V0.202545H6.85624Z" fill="white"/>
<path d="M21.7611 0C26.3319 0 30.2072 3.34177 30.2072 7.99999C30.2072 12.6582 26.3319 16 21.7611 16C17.1903 16 13.315 12.6582 13.315 7.99999C13.315 3.34177 17.1903 0 21.7611 0ZM21.7611 15.7975C23.9472 15.7975 24.444 13.4683 24.444 7.99999C24.444 2.53164 24.0465 0.202531 21.7611 0.202531C19.5751 0.202531 19.0782 2.53164 19.0782 7.99999C19.0782 13.4683 19.4757 15.7975 21.7611 15.7975Z" fill="white"/>
<path d="M36.7653 15.7975H31.5983V0.202545H40.1438C43.7209 0.202545 46.2051 1.62027 46.2051 4.25317C46.2051 7.08862 43.3235 8.3038 40.3425 8.3038C42.8266 8.3038 44.5158 9.01266 45.2114 11.1392L45.7082 12.6582C46.1057 14.076 46.3044 14.6835 47.1987 15.7975H41.6342C41.1374 14.8861 40.9387 14.2785 40.6406 13.1646L40.1438 11.2405C39.5476 9.11393 38.9514 8.40507 37.3615 8.40507H36.7653V15.7975ZM36.7653 8.20254H37.759C40.0444 8.20254 41.038 6.58229 41.038 4.45571C41.038 1.92406 39.945 0.506342 37.9577 0.506342H36.7653V8.20254Z" fill="white"/>
<path d="M48.3911 15.7975V0.202545H54.4524C59.4207 0.202545 63.8922 2.53166 63.8922 7.89874C63.8922 13.7722 59.1226 15.7975 55.2474 15.7975H48.3911ZM53.9556 0.506342H53.5581V15.5949H54.3531C56.8372 15.5949 58.5264 13.6709 58.5264 7.89874C58.5264 3.13925 56.9366 0.506342 53.9556 0.506342Z" fill="white"/>
<path d="M71.5433 11.8481H65.3827L63.3953 15.7975H63.0972L70.9471 0H71.0465L79.2939 15.7975H73.63L71.5433 11.8481ZM68.3636 5.77215L65.5814 11.6456H71.444L68.3636 5.77215Z" fill="white"/>
<path d="M93.8013 0.202531H94V16H93.9006L80.8837 6.37974V15.7975H80.685V0H80.7844L93.9006 9.21518V0.202531H93.8013Z" fill="white"/>
</svg>
